Coordinates
version=1
nRows=14
nColumns=40
inDegrees=yes

Units are S.I. units (second, meters, Newtons, ...)
If the header above contains a line with 'inDegrees', this indicates whether rotational values are in degrees (yes) or radians (no).

endheader
time	pelvis_tilt	pelvis_list	pelvis_rotation	pelvis_tx	pelvis_ty	pelvis_tz	hip_flexion_r	hip_adduction_r	hip_rotation_r	knee_angle_r	knee_angle_r_beta	ankle_angle_r	subtalar_angle_r	mtp_angle_r	hip_flexion_l	hip_adduction_l	hip_rotation_l	knee_angle_l	knee_angle_l_beta	ankle_angle_l	subtalar_angle_l	mtp_angle_l	lumbar_extension	lumbar_bending	lumbar_rotation	arm_flex_r	arm_add_r	arm_rot_r	elbow_flex_r	pro_sup_r	wrist_flex_r	wrist_dev_r	arm_flex_l	arm_add_l	arm_rot_l	elbow_flex_l	pro_sup_l	wrist_flex_l	wrist_dev_l
      7.02500000	    -21.96951803	      2.82784454	      0.46598585	     -0.40364427	      0.78985752	     -1.01247080	     31.07145335	     -5.94492677	     -1.30539338	     97.75718349	      1.70618472	    -10.20173519	      0.00000000	      0.00000000	     63.14691086	      2.41671884	    -10.22404403	     63.19446373	      1.10295146	     13.86347761	      0.00000000	      0.00000000	    -12.04614692	     -6.49211545	     -0.19769715	     89.88786388	    -14.89380131	     11.40071960	     33.87956050	     81.41415367	      0.00000000	      0.00000000	     89.89763639	    -25.29651482	     14.48148677	     43.54618220	     84.20649019	      0.00000000	      0.00000000
      7.03000000	    -22.08379445	      2.89912265	      0.49731450	     -0.40365287	      0.78892839	     -1.01255704	     31.14956369	     -6.04850368	     -1.27449221	     97.73534902	      1.70580364	    -10.13671292	      0.00000000	      0.00000000	     63.36763646	      2.46226975	    -10.28431054	     63.37548028	      1.10611080	     13.94271342	      0.00000000	      0.00000000	    -11.95259312	     -6.57259721	     -0.24001456	     89.88837424	    -14.79707637	     11.32002152	     33.87417825	     79.45370866	      0.00000000	      0.00000000	     89.89851951	    -25.15633642	     14.40326875	     43.54754834	     82.01728583	      0.00000000	      0.00000000
      7.03500000	    -22.15044449	      2.94548833	      0.53411568	     -0.40349946	      0.78815074	     -1.01262470	     31.16157295	     -6.12755279	     -1.26785581	     97.68620374	      1.70494589	    -10.16426727	      0.00000000	      0.00000000	     63.51160823	      2.47440282	    -10.36745924	     63.53698306	      1.10892955	     14.02515188	      0.00000000	      0.00000000	    -11.90830185	     -6.64667172	     -0.30579619	     89.88893702	    -14.70454045	     11.32353358	     33.86340694	     77.76693178	      0.00000000	      0.00000000	     89.89913890	    -25.09797800	     14.49187219	     43.58810272	     80.20683991	      0.00000000	      0.00000000
      7.04000000	    -22.24913494	      3.01081540	      0.54051143	     -0.40338305	      0.78729068	     -1.01266087	     31.22386487	     -6.18149400	     -1.18432660	     97.62964152	      1.70395869	    -10.21888990	      0.00000000	      0.00000000	     63.69465365	      2.45723299	    -10.50410177	     63.71341205	      1.11200882	     14.06510146	      0.00000000	      0.00000000	    -11.84316874	     -6.72489772	     -0.35321719	     89.88894657	    -14.78075802	     11.16038607	     33.90576756	     81.50941648	      0.00000000	      0.00000000	     89.89950017	    -25.25141544	     14.37546633	     43.71024129	     84.22470976	      0.00000000	      0.00000000
      7.04500000	    -22.28091716	      3.02132151	      0.63832838	     -0.40321895	      0.78653354	     -1.01281180	     31.15506042	     -6.24758509	     -1.23831805	     97.54592355	      1.70249754	    -10.10345504	      0.00000000	      0.00000000	     63.81531125	      2.50850305	    -10.53030136	     63.90672016	      1.11538268	     14.15367449	      0.00000000	      0.00000000	    -11.84158615	     -6.74219079	     -0.41596435	     89.88880448	    -14.70952747	     11.00778284	     33.90103174	     79.46551187	      0.00000000	      0.00000000	     89.90002355	    -25.05845824	     14.31946086	     43.65828901	     81.96100361	      0.00000000	      0.00000000
      7.05000000	    -22.34880307	      3.09354691	      0.68404447	     -0.40314582	      0.78574702	     -1.01289388	     31.19428456	     -6.32926302	     -1.15938965	     97.53483125	      1.70230394	    -10.16662182	      0.00000000	      0.00000000	     63.97804713	      2.55933359	    -10.58059391	     64.08292722	      1.11845807	     14.18115977	      0.00000000	      0.00000000	    -11.83120819	     -6.84750053	     -0.48703365	     89.88936696	    -14.85909807	     11.09725909	     34.03446080	     81.44279425	      0.00000000	      0.00000000	     89.90074156	    -25.17661178	     14.37030352	     43.93358776	     84.10138779	      0.00000000	      0.00000000
      7.05500000	    -22.45175325	      3.12146215	      0.76800202	     -0.40306278	      0.78505900	     -1.01294725	     31.23305658	     -6.42091894	     -1.21992988	     97.42248350	      1.70034310	    -10.24056768	      0.00000000	      0.00000000	     64.12812221	      2.55467308	    -10.73321202	     64.18908134	      1.12031081	     14.25925024	      0.00000000	      0.00000000	    -11.75839180	     -6.86460481	     -0.59210449	     89.88962997	    -14.80889737	     11.19356806	     34.03589354	     80.77707492	      0.00000000	      0.00000000	     89.90157280	    -25.26453001	     14.65958312	     43.97726512	     83.28243014	      0.00000000	      0.00000000
      7.06000000	    -22.49491800	      3.13178367	      0.88036279	     -0.40287534	      0.78437624	     -1.01307048	     31.14239328	     -6.45688475	     -1.25475924	     97.29930581	      1.69819325	    -10.08585200	      0.00000000	      0.00000000	     64.26135485	      2.62219400	    -10.72981200	     64.36166977	      1.12332305	     14.29599556	      0.00000000	      0.00000000	    -11.75744211	     -6.87952745	     -0.69038091	     89.88898903	    -14.71660481	     11.02304967	     34.00431994	     78.64437372	      0.00000000	      0.00000000	     89.90265487	    -25.05916597	     14.53089115	     43.88130666	     80.95587834	      0.00000000	      0.00000000
      7.06500000	    -22.59517365	      3.17072472	      0.91474461	     -0.40275408	      0.78351351	     -1.01316395	     31.20966552	     -6.54103351	     -1.23389421	     97.27281850	      1.69773096	    -10.14802152	      0.00000000	      0.00000000	     64.43306520	      2.60543907	    -10.84560011	     64.52185609	      1.12611883	     14.37890331	      0.00000000	      0.00000000	    -11.68746168	     -6.93297953	     -0.71432957	     89.89016311	    -14.81210940	     10.81101721	     34.06268069	     81.57916412	      0.00000000	      0.00000000	     89.90228804	    -25.12856171	     14.40029307	     43.99205136	     84.17949723	      0.00000000	      0.00000000
      7.07000000	    -22.65119982	      3.19454485	      0.95720614	     -0.40256389	      0.78275845	     -1.01326036	     31.20132431	     -6.59816749	     -1.22955224	     97.18769562	      1.69624528	    -10.24602699	      0.00000000	      0.00000000	     64.56621382	      2.59688594	    -10.93556537	     64.70112278	      1.12924762	     14.45286214	      0.00000000	      0.00000000	    -11.64918579	     -6.95804807	     -0.73400993	     89.89037338	    -14.85697408	     11.02220348	     34.08097109	     80.69382640	      0.00000000	      0.00000000	     89.90299184	    -25.09817449	     14.62368511	     44.03259900	     83.17694212	      0.00000000	      0.00000000
      7.07500000	    -22.67031312	      3.23055414	      1.01757835	     -0.40238443	      0.78202439	     -1.01333088	     31.13284474	     -6.66167254	     -1.22296006	     97.11575516	      1.69498968	    -10.18169648	      0.00000000	      0.00000000	     64.65680622	      2.61110553	    -11.01441053	     64.85107843	      1.13186484	     14.38412519	      0.00000000	      0.00000000	    -11.66972203	     -7.01230169	     -0.81177858	     89.89082276	    -14.80389147	     10.64956464	     34.09456443	     81.73750454	      0.00000000	      0.00000000	     89.90342394	    -25.01018022	     14.35204268	     44.02416536	     84.07182215	      0.00000000	      0.00000000
      7.08000000	    -22.72526151	      3.24211110	      1.12341572	     -0.40222031	      0.78135942	     -1.01340260	     31.08761056	     -6.71603947	     -1.27232007	     97.01948704	      1.69330949	    -10.11812367	      0.00000000	      0.00000000	     64.78601200	      2.65033373	    -11.04747342	     65.02762330	      1.13494613	     14.46039919	      0.00000000	      0.00000000	    -11.65087285	     -7.02593893	     -0.91283811	     89.89103708	    -14.72068630	     10.61075505	     34.08849042	     79.66450106	      0.00000000	      0.00000000	     89.90401522	    -24.87544467	     14.38014289	     43.95967760	     81.81261157	      0.00000000	      0.00000000
      7.08500000	    -22.76434760	      3.22999801	      1.22421842	     -0.40206002	      0.78063585	     -1.01346617	     31.02486792	     -6.73120215	     -1.30124255	     96.92891966	      1.69172879	    -10.02366383	      0.00000000	      0.00000000	     64.91274779	      2.65673174	    -11.09276226	     65.22121228	      1.13832490	     14.50964633	      0.00000000	      0.00000000	    -11.63408305	     -7.01638466	     -0.99089673	     89.89153471	    -14.61420648	     10.58774316	     34.02834976	     77.66314186	      0.00000000	      0.00000000	     89.90447549	    -24.72461423	     14.39163572	     43.93476967	     79.70988095	      0.00000000	      0.00000000
      7.09000000	    -22.91351015	      3.23969935	      1.24356355	     -0.40202636	      0.77983000	     -1.01340387	     31.15632800	     -6.74879610	     -1.27063955	     96.87679838	      1.69081910	    -10.10251521	      0.00000000	      0.00000000	     65.14475061	      2.59710485	    -11.18148340	     65.37789077	      1.14105945	     14.52603252	      0.00000000	      0.00000000	    -11.53211401	     -7.04934716	     -1.01680423	     89.89162262	    -14.76216791	     10.48329001	     34.13924552	     81.42638120	      0.00000000	      0.00000000	     89.90492089	    -24.88900645	     14.31376934	     44.09732158	     84.15871108	      0.00000000	      0.00000000
